<svg xmlns="http://www.w3.org/2000/svg" xmlns:xlink="http://www.w3.org/1999/xlink" width="500" zoomAndPan="magnify" viewBox="0 0 375 374.999991" height="500" preserveAspectRatio="xMidYMid meet" version="1.0"><defs><g/></defs><rect x="-37.5" width="450" fill="#ffffff" y="-37.499999" height="449.999989" fill-opacity="1"/><rect x="-37.5" width="450" fill="#000000" y="-37.499999" height="449.999989" fill-opacity="1"/><g fill="#f5f5f5" fill-opacity="1"><g transform="translate(18.982877, 286.872853)"><g><path d="M 5.640625 -108.546875 C 5.984375 -112.054688 6.71875 -117.617188 7.84375 -125.234375 C 8.96875 -132.847656 10.515625 -140.523438 12.484375 -148.265625 C 14.453125 -156.003906 16.898438 -162.84375 19.828125 -168.78125 C 22.753906 -174.71875 26.3125 -177.8125 30.5 -178.0625 C 36.769531 -178.394531 45.695312 -177.554688 57.28125 -175.546875 C 68.875 -173.546875 76.757812 -169.867188 80.9375 -164.515625 C 82.363281 -162.503906 82.09375 -158.445312 80.125 -152.34375 C 78.15625 -146.238281 76.796875 -141.929688 76.046875 -139.421875 C 72.867188 -130.128906 69.921875 -119.835938 67.203125 -108.546875 C 64.484375 -97.253906 64.082031 -86.671875 66 -76.796875 C 68.257812 -64.585938 74.03125 -60.882812 83.3125 -65.6875 C 92.601562 -70.5 99.050781 -76.046875 102.65625 -82.328125 C 105.25 -86.835938 107.378906 -92.191406 109.046875 -98.390625 C 111.640625 -107.671875 113.5 -117.664062 114.625 -128.375 C 115.757812 -139.082031 115.742188 -149.164062 114.578125 -158.625 C 114.234375 -161.125 113.9375 -163.816406 113.6875 -166.703125 C 113.4375 -169.597656 113.859375 -172.300781 114.953125 -174.8125 C 115.535156 -176.476562 116.535156 -177.941406 117.953125 -179.203125 C 121.222656 -182.460938 126.957031 -185.597656 135.15625 -188.609375 C 143.351562 -191.617188 150.335938 -192.664062 156.109375 -191.75 C 159.367188 -191.25 161.753906 -189.238281 163.265625 -185.71875 C 167.441406 -175.59375 168.546875 -161.078125 166.578125 -142.171875 C 164.617188 -123.265625 162.507812 -108.5 160.25 -97.875 C 156.90625 -82.65625 151.675781 -67.492188 144.5625 -52.390625 C 137.445312 -37.285156 127.410156 -25.050781 114.453125 -15.6875 C 102.398438 -6.90625 88.882812 -2.09375 73.90625 -1.25 C 62.363281 -0.582031 50.84375 -2.523438 39.34375 -7.078125 C 27.84375 -11.640625 19.035156 -19.148438 12.921875 -29.609375 C 6.398438 -40.566406 3.203125 -53.453125 3.328125 -68.265625 C 3.453125 -83.078125 4.222656 -96.503906 5.640625 -108.546875 Z M 5.640625 -108.546875 "/></g></g></g><g fill="#f5f5f5" fill-opacity="1"><g transform="translate(179.446131, 286.872853)"><g><path d="M 110.9375 -47.1875 C 104.65625 -44.925781 95.972656 -43 84.890625 -41.40625 C 73.804688 -39.820312 64.5 -39.238281 56.96875 -39.65625 C 55.039062 -30.53125 53.578125 -22.289062 52.578125 -14.9375 C 51.492188 -7.820312 49.046875 -3.632812 45.234375 -2.375 C 41.429688 -1.125 36.726562 -1.003906 31.125 -2.015625 C 27.269531 -2.679688 23.019531 -3.867188 18.375 -5.578125 C 13.738281 -7.296875 9.875 -9.410156 6.78125 -11.921875 C 4.1875 -14.097656 2.425781 -17.109375 1.5 -20.953125 C 0.75 -23.878906 0.3125 -26.953125 0.1875 -30.171875 C 0.0625 -33.398438 0.0820312 -36.519531 0.25 -39.53125 C 0.664062 -47.8125 2.335938 -58.351562 5.265625 -71.15625 C 8.191406 -83.957031 11.8125 -97.09375 16.125 -110.5625 C 20.4375 -124.03125 25.160156 -136.953125 30.296875 -149.328125 C 35.441406 -161.710938 40.441406 -171.671875 45.296875 -179.203125 C 47.722656 -183.046875 50.691406 -186.910156 54.203125 -190.796875 C 57.722656 -194.691406 61.867188 -197.140625 66.640625 -198.140625 C 71.398438 -199.148438 77.710938 -199.023438 85.578125 -197.765625 C 93.441406 -196.515625 99.34375 -194.257812 103.28125 -191 C 110.132812 -187.3125 117.265625 -179.023438 124.671875 -166.140625 C 132.078125 -153.265625 138.914062 -139.066406 145.1875 -123.546875 C 151.46875 -108.023438 156.84375 -92.859375 161.3125 -78.046875 C 165.789062 -63.242188 168.53125 -52.160156 169.53125 -44.796875 C 170.539062 -37.429688 170.707031 -31.242188 170.03125 -26.234375 C 169.28125 -22.046875 167.734375 -18.90625 165.390625 -16.8125 C 162.460938 -13.96875 158.78125 -11.5 154.34375 -9.40625 C 149.914062 -7.320312 145.816406 -5.773438 142.046875 -4.765625 C 136.523438 -3.265625 131.796875 -2.992188 127.859375 -3.953125 C 123.929688 -4.910156 121.21875 -8.863281 119.71875 -15.8125 C 117.457031 -25.09375 114.53125 -35.550781 110.9375 -47.1875 Z M 63 -64.125 C 75.789062 -63.957031 89.175781 -65.546875 103.15625 -68.890625 C 96.707031 -85.785156 89.425781 -101.890625 81.3125 -117.203125 C 74.375 -100.890625 68.269531 -83.195312 63 -64.125 Z M 63 -64.125 "/></g></g></g></svg>