<?xml version="1.0"?><svg version="1.2" baseProfile="tiny-ps" viewBox="0 0 300 300" xmlns="http://www.w3.org/2000/svg" xmlns:xlink="http://www.w3.org/1999/xlink"><title>ultimate-academy</title><g><g fill="#f5f5f5" transform="matrix(.1 0 0 -.1 0 300)"><path d="M0 1500V0h3000v3000H0V1500z"/></g><g fill="#d6d6d6" transform="matrix(.1 0 0 -.1 0 300)"><path d="M0 1500V0h3000v3000H0V1500zm2192 763c117-46 186-128 301-359 106-211 208-487 267-719l30-120V894l-17-24c-25-37-51-55-123-91l-65-32-66-5-66-4-21 27c-12 15-27 46-33 69-16 63-70 250-72 253-1 1-34-7-72-17-81-21-224-40-307-40h-56l-11-32c-5-18-14-64-20-103-6-38-16-87-21-107l-11-38-29-15c-39-20-76-19-162 5l-73 20-45 28-45 28-17 49-17 50-1 60c0 137 66 425 162 705 85 247 172 425 256 529l35 43 41 20 41 19 87-5 87-6 43-17zm-766-41c6-4 20-23 30-42l18-35 4-140 4-140-11-90c-36-301-75-450-171-650l-48-100-57-68-57-67-63-45c-74-53-155-90-239-110l-61-15H635l-71 19c-39 10-97 30-128 44l-57 26-52 54-52 53-32 65-32 65-17 97-18 98 17 207 17 208 20 100c27 142 47 210 80 281l28 62 31 16 32 16 127-16 127-17 62-29 63-30 11-21 11-20-7-37c-4-20-20-75-36-124-16-48-43-140-60-205l-31-117v-184l12-38c7-21 22-48 33-60l20-23h62l50 29c119 69 160 140 211 361l18 75v216l1 217 20 22c23 25 78 55 150 81l50 18h60c33 1 65-3 71-7zm634-629c-11-26-41-108-65-182-25-75-49-148-54-163-11-33-7-38 38-38s262 30 277 39l11 6-36 90c-53 129-133 295-142 295-5 0-17-21-29-47z"/></g><g fill="#a9a9a9" transform="matrix(.1 0 0 -.1 0 300)"><path d="M0 1500V0h3000v3000H0V1500zm2217 754c31-15 73-43 94-61l38-34 52-82c127-198 276-565 360-885l29-113V893l-23-34-23-34-76-39-77-39-55-5c-30-2-66-2-80 2l-25 6-12 21c-6 12-28 84-49 161s-41 142-43 144c-3 3-51-5-108-16-83-17-249-38-316-40h-12l-10-37c-5-21-15-72-21-113-20-123-42-150-123-150h-45l-63 20c-35 11-82 30-103 42l-40 23-20 34-20 34-4 82-4 83 16 98c44 259 182 689 291 905 58 115 141 215 195 239l25 10 98-4 98-4 56-28zm-782-34c22-18 45-103 52-192l6-76-12-114c-35-327-83-520-176-711-71-143-146-231-267-311l-55-37-74-26-74-26-101-5-102-5-92 27-92 26-43 25c-24 14-63 47-88 74l-45 48-31 60-30 60-17 84-17 84 7 145c11 244 42 448 92 608l26 82 29 40 28 39 35 6 34 7 111-16c127-19 181-36 228-72l33-25v-30c0-16-22-101-49-188-27-88-57-197-66-243l-17-82 4-86 4-85 19-40 20-40 28-9 27-10 55 27c30 14 72 42 93 61l38 35 26 48c34 62 63 171 83 304 17 121 19 202 5 307l-10 74 14 32 14 33 33 26c41 30 96 55 164 73l50 13 42-3 43-4 15-12zm607-682c-39-100-102-293-102-312v-9l108 6c107 5 212 24 212 38 0 25-163 379-174 379-3 0-22-46-44-102z"/></g><g fill="#757575" transform="matrix(.1 0 0 -.1 0 300)"><path d="M0 1500V0h3000v3000H0V1500zm2222 752 66-32 51-56 50-55 57-101c82-146 167-346 240-563 72-218 101-329 110-430l6-70-11-42-11-42-41-35-41-35-67-27-66-27-57-1-57-1-20 20-21 20-41 150c-22 83-43 152-45 154s-22-1-44-8c-65-19-197-40-297-47l-92-7-10-47c-6-26-15-77-21-115-12-75-19-92-49-119l-21-19-72 5-73 5-58 23-59 22-34 30-34 30-11 41-11 42 5 110 5 110 27 118c83 369 237 770 356 930l44 59 40 24 40 25 101-3 100-3 66-33zm-787-36 23-23 12-39c6-22 14-82 17-134l5-96-16-149c-32-283-82-470-178-665l-52-105-90-90-91-91-70-36-70-36-65-17-65-17H621l-77 22c-100 27-166 63-225 122l-47 47-30 61-31 61-17 77-17 76 6 171 6 170 21 134c25 167 54 288 90 367l27 60 28 22 28 22h46c25 0 89-7 141-15l95-15 61-30 61-30 11-24 10-24-8-33c-4-19-28-99-53-179s-53-184-63-230l-17-84 6-83 6-83 13-27c7-14 25-35 40-46l26-20 34 12c18 6 57 28 86 48l53 36 28 41c54 78 92 218 112 406l10 95-11 113-11 113 18 36 18 37 60 33c70 37 151 61 213 62l43 1 24-24zm612-668c-29-78-65-186-102-307l-7-24 103 6c87 5 206 22 217 32 8 7-160 385-171 385-2 0-20-42-40-92z"/></g><g fill="#3f3f3f" transform="matrix(.1 0 0 -.1 0 300)"><path d="M0 1500V0h3000v3000H0V1500zm2110 790 65-11 52-25 53-25 41-41c136-135 330-568 445-994l27-99 1-107 1-107-35-36c-39-41-87-68-169-96l-54-19h-76l-26 23-26 22-41 145c-22 80-43 148-47 152l-6 7-50-14c-67-19-250-45-318-45h-55l-17-98c-9-53-23-116-32-140l-15-42-21-11-21-12-51 1c-68 0-127 17-199 55l-59 31-18 41-19 40v203l16 83c67 362 247 849 376 1017 79 102 138 124 278 102zm-671-74 23-25 14-58 14-58v-213l-20-153c-61-461-197-745-430-897l-65-42-80-26-80-26-100-1-100-1-65 18c-36 10-90 30-120 44l-55 26-50 50-50 51-32 61-33 61-16 69-16 69 6 190c7 263 40 472 98 633l30 83 30 29 30 30h56c31 0 100-7 152-15l95-16 53-25 53-26 15-24 16-23-7-33c-4-18-27-96-51-173-25-77-54-187-66-245l-21-105 10-83 10-84 20-26 20-27 31-3 32-3 50 27 50 27 44 47 43 46 22 60c13 32 32 100 44 149l22 90v434l21 28 21 28 64 32c73 37 122 50 195 52l51 1 22-24zm612-665c-33-86-70-196-95-280l-16-54 93 6c80 5 175 20 214 32l12 4-40 97c-42 101-126 274-133 274-3 0-18-36-35-79z"/></g><g fill="#020202" transform="matrix(.1 0 0 -.1 0 300)"><path d="M0 1500V0h3000v3000H0V1500zm2150 784 68-15 54-37 53-38 52-69 52-69 70-141c107-213 194-446 266-706l26-94 5-105 5-105-18-35-18-35-50-32c-27-18-76-42-109-53l-60-20h-87l-21 11-20 11-14 33c-7 18-18 55-24 82-6 26-22 85-36 130l-25 82-26-10c-15-5-78-19-141-30l-114-19h-144l-22-122-22-123-18-24-18-25-35-9-34-9-65 11-65 12-65 32-64 32-18 25-18 25-11 60-11 60 11 106 11 107 44 174c64 251 153 502 241 679 71 143 136 223 205 253l35 15 53 1c29 0 84-7 122-16zm-707-63 18-18 16-59 17-59-1-120-1-120-16-120c-44-324-117-550-234-722l-41-60-66-60-65-61-68-35c-37-19-92-43-122-53l-55-18H595l-69 22c-38 12-91 34-117 49l-49 26-49 52-49 52-25 50c-14 27-33 78-42 112l-16 63v159c1 352 74 711 163 806l21 23h155l83-16 83-15 40-21c23-11 51-30 64-41l22-20v-27c0-14-20-88-44-165s-54-180-66-229l-22-89 4-106 4-106 17-32 17-33 25-6 24-6 33 11c18 6 55 28 83 49l50 38 26 39c32 49 62 134 85 245l18 85v212l1 211 25 27c30 32 117 77 180 93 78 20 84 20 120 15l35-4 18-18zm604-688c-49-135-97-284-97-301v-15l83 7c98 8 199 26 211 37l8 7-32 79c-41 99-128 283-133 283-2 0-20-44-40-97z"/></g></g></svg>